HIERARCHY
ROOT SpineBase
{
  OFFSET 0.000000 0.000000 0.000000
  CHANNELS 6 Xposition Yposition Zposition Zrotation Xrotation Yrotation
  JOINT SpineMid
  {
    OFFSET 0.000000 26.943932 0.000000
    CHANNELS 3 Zrotation Xrotation Yrotation
    JOINT SpineShoulder
    {
      OFFSET 0.027804 19.987587 -0.553544
      CHANNELS 3 Zrotation Xrotation Yrotation
      JOINT Neck
      {
        OFFSET 0.033412 6.617491 -0.473272
        CHANNELS 3 Zrotation Xrotation Yrotation
        JOINT Head
        {
          OFFSET 1.717383 12.284087 -0.288227
          CHANNELS 3 Zrotation Xrotation Yrotation
          End Site
          {
            OFFSET 0 0 0
          }
        }
      }
      JOINT ShoulderLeft
      {
        OFFSET -11.152940 -3.157237 -9.013467
        CHANNELS 3 Zrotation Xrotation Yrotation
        JOINT ElbowLeft
        {
          OFFSET -1.854619 -20.607151 -3.715949
          CHANNELS 3 Zrotation Xrotation Yrotation
          JOINT WristLeft
          {
            OFFSET 8.958479 -17.288009 -2.249583
            CHANNELS 3 Zrotation Xrotation Yrotation
            JOINT HandLeft
            {
              OFFSET 3.756630 -6.107835 2.233805
              CHANNELS 3 Zrotation Xrotation Yrotation
              JOINT HandTipLeft
              {
                OFFSET 6.213955 -4.235755 -1.086063
                CHANNELS 3 Zrotation Xrotation Yrotation
                End Site
                {
                  OFFSET 0 0 0
                }
              }
              JOINT ThumbLeft
              {
                OFFSET -4.581056 -3.225313 0.146944
                CHANNELS 3 Zrotation Xrotation Yrotation
                End Site
                {
                  OFFSET 0 0 0
                }
              }
            }
          }
        }
      }
      JOINT ShoulderRight
      {
        OFFSET 12.158732 -4.551253 4.255198
        CHANNELS 3 Zrotation Xrotation Yrotation
        JOINT ElbowRight
        {
          OFFSET 1.179326 -20.528786 2.609770
          CHANNELS 3 Zrotation Xrotation Yrotation
          JOINT WristRight
          {
            OFFSET -1.486295 -17.328989 -12.833963
            CHANNELS 3 Zrotation Xrotation Yrotation
            JOINT HandRight
            {
              OFFSET -1.265327 -3.658499 -1.383598
              CHANNELS 3 Zrotation Xrotation Yrotation
              JOINT HandTipRight
              {
                OFFSET -2.826344 -4.684235 -5.743712
                CHANNELS 3 Zrotation Xrotation Yrotation
                End Site
                {
                  OFFSET 0 0 0
                }
              }
              JOINT ThumbRight
              {
                OFFSET -3.116795 -3.095995 -4.765648
                CHANNELS 3 Zrotation Xrotation Yrotation
                End Site
                {
                  OFFSET 0 0 0
                }
              }
            }
          }
        }
      }
    }
  }
  JOINT HipLeft
  {
    OFFSET -5.106535 1.100306 -5.972283
    CHANNELS 3 Zrotation Xrotation Yrotation
    JOINT KneeLeft
    {
      OFFSET -5.393161 -30.790948 4.333265
      CHANNELS 3 Zrotation Xrotation Yrotation
      JOINT AnkleLeft
      {
        OFFSET -3.576434 -30.407994 9.707691
        CHANNELS 3 Zrotation Xrotation Yrotation
        JOINT FootLeft
        {
          OFFSET 5.303655 -5.814729 0.733275
          CHANNELS 3 Zrotation Xrotation Yrotation
          End Site
          {
            OFFSET 0 0 0
          }
        }
      }
    }
  }
  JOINT HipRight
  {
    OFFSET 4.686486 -0.037749 -0.223841
    CHANNELS 3 Zrotation Xrotation Yrotation
    JOINT KneeRight
    {
      OFFSET -2.262162 -28.782162 4.970008
      CHANNELS 3 Zrotation Xrotation Yrotation
      JOINT AnkleRight
      {
        OFFSET -6.114448 -33.335877 8.717101
        CHANNELS 3 Zrotation Xrotation Yrotation
        JOINT FootRight
        {
          OFFSET 3.303147 -2.704574 -8.870521
          CHANNELS 3 Zrotation Xrotation Yrotation
          End Site
          {
            OFFSET 0 0 0
          }
        }
      }
    }
  }
}
MOTION
Frames: 7
Frame Time: 0.033333
11.094478 38.735569 389.765863 -13.104531 -31.155904 -34.255715 0.722515 0.344963 30.088415 0.682878 1.035581 -0.416478 -11.977338 -1.976776 7.444924 0.000000 0.000000 0.000000 76.185424 59.350690 -61.632692 -88.543881 -58.450041 -65.301271 -12.186862 0.687793 -17.117315 14.894801 9.778811 -11.081919 0.000000 0.000000 0.000000 0.000000 0.000000 0.000000 -14.635273 1.401424 0.017054 6.976526 -8.653064 24.516545 64.427653 42.360173 -61.169820 38.007391 -61.278181 62.956230 0.000000 0.000000 0.000000 0.000000 0.000000 0.000000 5.043173 53.098270 24.495296 -12.273576 1.319726 -1.811290 -12.643099 -1.830901 10.119386 0.000000 0.000000 0.000000 3.982588 48.537954 27.374972 -4.544381 53.071399 -21.344467 14.037399 -77.808820 35.639726 0.000000 0.000000 0.000000
11.391334 42.100429 386.680429 -13.600220 -30.577522 -28.702225 0.361307 0.554283 24.562692 0.959376 0.909725 -0.508571 -22.284953 -7.433133 8.777777 0.000000 0.000000 0.000000 19.125559 32.059744 -7.782329 -35.402572 -29.319325 -20.157578 -15.902474 -2.541382 -21.219733 16.794059 16.121347 -6.151727 0.000000 0.000000 0.000000 0.000000 0.000000 0.000000 -14.193593 0.659936 -0.335075 6.985484 -8.683946 24.504353 42.079181 38.915953 -39.641796 10.045466 -42.360943 27.727184 0.000000 0.000000 0.000000 0.000000 0.000000 0.000000 11.233020 45.540985 17.716089 -8.205913 6.420627 -1.359275 -9.267552 0.920350 12.441897 0.000000 0.000000 0.000000 12.204288 41.430663 18.979763 -4.773088 52.306461 -18.328220 2.406740 -67.591533 24.450985 0.000000 0.000000 0.000000
12.503845 46.702635 384.464535 -14.168620 -30.739106 -10.950680 0.450685 0.735802 6.660297 0.624856 0.949579 -0.454758 -30.279792 -12.750839 8.954928 0.000000 0.000000 0.000000 5.778362 10.602259 2.543163 -23.044318 -7.014457 -12.992319 -14.789455 -3.087813 -23.702272 13.862259 17.397722 -0.444197 0.000000 0.000000 0.000000 0.000000 0.000000 0.000000 -13.363401 0.578613 -0.531584 6.999362 -8.717348 24.494212 20.478361 28.240921 -19.195435 7.766014 -22.073891 16.231596 0.000000 0.000000 0.000000 0.000000 0.000000 0.000000 21.140205 40.316904 -2.599305 -1.256179 4.532664 0.796334 -1.649773 7.484032 16.832662 0.000000 0.000000 0.000000 23.699651 30.498114 -0.837115 -5.213369 49.366631 -14.488942 -2.649746 -56.413949 22.880229 0.000000 0.000000 0.000000
13.429529 51.595801 383.227966 -15.375587 -31.420894 -2.062474 1.075068 1.255451 -2.746429 0.462826 1.140041 -0.420626 -36.882127 -15.279991 9.021167 0.000000 0.000000 0.000000 0.248566 3.116598 5.769780 -16.655641 1.532020 -11.896120 -11.169837 -1.095830 -21.152280 7.058248 12.083952 3.558355 0.000000 0.000000 0.000000 0.000000 0.000000 0.000000 -12.708197 0.583966 -0.661408 7.009066 -8.743252 24.485581 15.232979 22.389361 -14.245355 6.081409 -10.959536 13.733995 0.000000 0.000000 0.000000 0.000000 0.000000 0.000000 26.219077 37.065792 -12.614147 0.967825 4.581706 1.222214 14.776470 14.575513 21.705476 0.000000 0.000000 0.000000 28.336856 26.636945 -10.467722 -4.280567 32.231096 -8.468445 -10.772814 -34.689679 21.847597 0.000000 0.000000 0.000000
14.142238 55.473018 381.912097 -15.560303 -30.208421 -2.153887 1.393106 0.903438 -2.648536 0.256137 1.415473 -0.347833 -42.445075 -18.641825 7.789630 0.000000 0.000000 0.000000 -3.980538 -0.422366 7.600005 -13.595299 3.960095 -12.540786 -8.313988 1.772440 -18.652385 -5.538815 4.883937 15.018294 0.000000 0.000000 0.000000 0.000000 0.000000 0.000000 -12.565645 -0.466194 -1.040942 7.012917 -8.765622 24.474859 23.809798 27.488782 -22.065450 0.755558 -15.167082 17.103559 0.000000 0.000000 0.000000 0.000000 0.000000 0.000000 24.614527 34.555315 -10.930943 0.551346 5.772708 0.619848 30.206350 19.643773 23.455094 0.000000 0.000000 0.000000 27.362800 25.563985 -9.540007 -2.034547 18.287680 -4.230556 -16.362624 -19.252249 27.505271 0.000000 0.000000 0.000000
14.731817 58.703726 381.287182 -15.943145 -28.870281 -2.238076 1.466624 1.413859 -2.419142 -0.184458 0.915067 -0.337901 -44.371373 -19.184876 6.833486 0.000000 0.000000 0.000000 -7.375418 0.150083 9.132113 -8.263006 3.586943 -13.699512 -6.868377 2.440430 -17.172181 -19.458321 -4.446842 25.691076 0.000000 0.000000 0.000000 0.000000 0.000000 0.000000 -11.721585 -1.677504 -1.594379 7.011863 -8.779651 24.465644 43.645318 34.296225 -40.574452 -4.138777 -29.925128 22.359677 0.000000 0.000000 0.000000 0.000000 0.000000 0.000000 24.826876 33.312573 -10.438410 -0.964781 5.261222 0.212568 38.934531 21.678528 23.376917 0.000000 0.000000 0.000000 27.205585 25.144526 -9.028983 -0.427028 6.830950 -0.900754 -18.523474 -6.398665 30.113368 0.000000 0.000000 0.000000
15.598964 60.472819 380.634736 -14.711802 -26.799901 -12.618565 1.237686 0.453244 8.501258 0.381445 1.010481 -0.401074 -46.435634 -17.321092 7.215795 0.000000 0.000000 0.000000 -10.232359 4.637322 10.085748 -7.050301 -1.418404 -15.038368 -4.840134 1.823411 -17.036527 -32.481409 -13.673792 38.179271 0.000000 0.000000 0.000000 0.000000 0.000000 0.000000 -13.085542 -2.710710 -1.706799 7.005145 -8.786386 24.456770 62.712419 41.574063 -59.427489 1.255180 -49.563988 33.083598 0.000000 0.000000 0.000000 0.000000 0.000000 0.000000 16.141518 34.251669 3.233357 -1.820155 5.355468 -0.175361 42.757725 18.281655 21.176036 0.000000 0.000000 0.000000 19.785419 29.375642 3.256848 -0.271938 8.414455 -1.531773 -18.526608 -10.405224 32.993120 0.000000 0.000000 0.000000
